<svg width="240" height="240" viewBox="0 0 240 240" fill="none" xmlns="http://www.w3.org/2000/svg">
  <defs>
    <linearGradient id="bodyAlert" x1="48" y1="58" x2="184" y2="180" gradientUnits="userSpaceOnUse">
      <stop stop-color="#4ADE80"/>
      <stop offset=".5" stop-color="#22C55E"/>
      <stop offset="1" stop-color="#166534"/>
    </linearGradient>
    <filter id="shadowAlert" x="12" y="22" width="216" height="204" filterUnits="userSpaceOnUse" color-interpolation-filters="sRGB">
      <feDropShadow dx="0" dy="15" stdDeviation="12" flood-color="#052E16" flood-opacity=".32"/>
    </filter>
    <style>
      .blink{transform-origin:center;animation:blinkAlert 3.6s infinite}
      @keyframes blinkAlert{0%,88%,100%{transform:scaleY(1)}92%{transform:scaleY(.1)}}
    </style>
  </defs>

  <circle cx="120" cy="118" r="94" fill="#FACC15" opacity=".16"/>
  <g filter="url(#shadowAlert)">
    <path d="M55 73C55 59.745 65.745 49 79 49H146C164.225 49 179 63.775 179 82V150C179 166.569 165.569 180 149 180H91L70.84 198.41C63.779 204.859 52.5 199.849 52.5 190.281V177.5C42.948 174.68 36 165.84 36 155.375V92C36 81.507 44.507 73 55 73Z" fill="url(#bodyAlert)"/>
    <path d="M75 44H148C169.539 44 187 61.461 187 83V88H69C59.611 88 52 80.389 52 71V67C52 54.297 62.297 44 75 44Z" fill="#FEF08A"/>
    <path d="M66 55H151C164.807 55 176 66.193 176 80V91H64C57.373 91 52 85.627 52 79V69C52 61.268 58.268 55 66 55Z" fill="#BEF264"/>
    <path d="M157 94H199C205.627 94 211 99.373 211 106V127C211 133.627 205.627 139 199 139H157V94Z" fill="#FEFCE8"/>
    <rect x="162" y="100" width="38" height="33" rx="13" fill="#14532D"/>
    <circle cx="188" cy="116" r="8" fill="#FEF9C3"/>

    <ellipse class="blink" cx="90" cy="113" rx="24" ry="30" fill="#FFFFFF"/>
    <ellipse class="blink" cx="130" cy="113" rx="22" ry="28" fill="#FFFFFF"/>
    <ellipse cx="95" cy="118" rx="13" ry="18" fill="#062A18"/>
    <ellipse cx="126" cy="118" rx="9" ry="17" fill="#062A18"/>
    <circle cx="99" cy="110" r="4" fill="#FFFFFF"/>
    <circle cx="128" cy="110" r="3" fill="#FFFFFF"/>
    <path d="M72 85C80 78 91.5 76 101 80" stroke="#064E3B" stroke-width="6" stroke-linecap="round"/>
    <path d="M117 80C126.5 76 138 78 146 85" stroke="#064E3B" stroke-width="6" stroke-linecap="round"/>
    <path d="M91 153C98.5 146.5 107.667 143.25 118.5 143.25C129.333 143.25 138.5 146.5 146 153" stroke="#062A18" stroke-width="9" stroke-linecap="round"/>
    <path d="M103 154C113 149 123 149 133 154" stroke="#FFFFFF" stroke-width="5" stroke-linecap="round"/>

    <path d="M39 125C25 121 19 109 23 96" stroke="#052E16" stroke-width="10" stroke-linecap="round"/>
    <path d="M178 129C191 126 199 118 203 105" stroke="#052E16" stroke-width="10" stroke-linecap="round"/>
    <path d="M204 104C208 96 216 92 224 95" stroke="#052E16" stroke-width="7" stroke-linecap="round"/>
    <path d="M83 180L73 207" stroke="#052E16" stroke-width="10" stroke-linecap="round"/>
    <path d="M144 180L153 207" stroke="#052E16" stroke-width="10" stroke-linecap="round"/>
    <rect x="57" y="200" width="42" height="24" rx="12" fill="#FFFFFF"/>
    <rect x="134" y="200" width="42" height="24" rx="12" fill="#FFFFFF"/>
    <path d="M64 212H91" stroke="#16A34A" stroke-width="6" stroke-linecap="round"/>
    <path d="M141 212H168" stroke="#16A34A" stroke-width="6" stroke-linecap="round"/>
  </g>
  <path d="M61 33L70 20" stroke="#FACC15" stroke-width="7" stroke-linecap="round"/>
  <path d="M87 27L88 12" stroke="#FACC15" stroke-width="7" stroke-linecap="round"/>
  <path d="M109 33L120 21" stroke="#FACC15" stroke-width="7" stroke-linecap="round"/>
</svg>
